<svg width="0" height="0" class="hidden">
  <symbol xmlns="http://www.w3.org/2000/svg" viewBox="0 0 64 64" id="twitter">
    <path d="M61.932,15.439c-2.099,0.93-4.356,1.55-6.737,1.843c2.421-1.437,4.283-3.729,5.157-6.437	c-2.265,1.328-4.774,2.303-7.444,2.817C50.776,11.402,47.735,10,44.366,10c-6.472,0-11.717,5.2-11.717,11.611	c0,0.907,0.106,1.791,0.306,2.649c-9.736-0.489-18.371-5.117-24.148-12.141c-1.015,1.716-1.586,3.726-1.586,5.847	c0,4.031,2.064,7.579,5.211,9.67c-1.921-0.059-3.729-0.593-5.312-1.45c0,0.035,0,0.087,0,0.136c0,5.633,4.04,10.323,9.395,11.391	c-0.979,0.268-2.013,0.417-3.079,0.417c-0.757,0-1.494-0.086-2.208-0.214c1.491,4.603,5.817,7.968,10.942,8.067	c-4.01,3.109-9.06,4.971-14.552,4.971c-0.949,0-1.876-0.054-2.793-0.165C10.012,54.074,16.173,56,22.786,56	c21.549,0,33.337-17.696,33.337-33.047c0-0.503-0.016-1.004-0.04-1.499C58.384,19.83,60.366,17.78,61.932,15.439"></path>
  </symbol>
  <symbol version="1.1" xmlns="http://www.w3.org/2000/svg" xmlns:xlink="http://www.w3.org/1999/xlink" x="0px" y="0px" xml:space="preserve" viewBox="5 5 54 54" id="facebook">
    <g id="">
      <path d="M48,7H16c-4.418,0-8,3.582-8,8v32c0,4.418,3.582,8,8,8h17V38h-6v-7h6v-5c0-7,4-11,10-11c3.133,0,5,1,5,1v6h-4
		c-2.86,0-4,2.093-4,4v5h7l-1,7h-6v17h8c4.418,0,8-3.582,8-8V15C56,10.582,52.418,7,48,7z"></path>
    </g>
    <g id=""></g>
  </symbol>

  <symbol xmlns="http://www.w3.org/2000/svg" viewBox="0 0 50 50" id="instagram">
    <path d="M 16 3 C 8.8324839 3 3 8.8324839 3 16 L 3 34 C 3 41.167516 8.8324839 47 16 47 L 34 47 C 41.167516 47 47 41.167516 47 34 L 47 16 C 47 8.8324839 41.167516 3 34 3 L 16 3 z M 16 5 L 34 5 C 40.086484 5 45 9.9135161 45 16 L 45 34 C 45 40.086484 40.086484 45 34 45 L 16 45 C 9.9135161 45 5 40.086484 5 34 L 5 16 C 5 9.9135161 9.9135161 5 16 5 z M 37 11 A 2 2 0 0 0 35 13 A 2 2 0 0 0 37 15 A 2 2 0 0 0 39 13 A 2 2 0 0 0 37 11 z M 25 14 C 18.936712 14 14 18.936712 14 25 C 14 31.063288 18.936712 36 25 36 C 31.063288 36 36 31.063288 36 25 C 36 18.936712 31.063288 14 25 14 z M 25 16 C 29.982407 16 34 20.017593 34 25 C 34 29.982407 29.982407 34 25 34 C 20.017593 34 16 29.982407 16 25 C 16 20.017593 20.017593 16 25 16 z"></path>
  </symbol>

  <symbol xmlns="http://www.w3.org/2000/svg" viewBox="0 0 30 30" id="linkedin">
    <path d="M9,25H4V10h5V25z M6.501,8C5.118,8,4,6.879,4,5.499S5.12,3,6.501,3C7.879,3,9,4.121,9,5.499C9,6.879,7.879,8,6.501,8z M27,25h-4.807v-7.3c0-1.741-0.033-3.98-2.499-3.98c-2.503,0-2.888,1.896-2.888,3.854V25H12V9.989h4.614v2.051h0.065 c0.642-1.18,2.211-2.424,4.551-2.424c4.87,0,5.77,3.109,5.77,7.151C27,16.767,27,25,27,25z"></path>
  </symbol>

  <symbol fill="#" xmlns="http://www.w3.org/2000/svg" viewBox="0 0 24 24" id="telegram">
    <path d="m12 0c-6.627 0-12 5.373-12 12s5.373 12 12 12 12-5.373 12-12c0-6.627-5.373-12-12-12zm5.894 8.221-1.97 9.28c-.145.658-.537.818-1.084.508l-3-2.21-1.446 1.394c-.14.18-.357.295-.6.295-.002 0-.003 0-.005 0l.213-3.054 5.56-5.022c.24-.213-.054-.334-.373-.121l-6.869 4.326-2.96-.924c-.64-.203-.658-.64.135-.954l11.566-4.458c.538-.196 1.006.128.832.941z"></path>
  </symbol>

  <symbol fill="#000" xmlns="http://www.w3.org/2000/svg" viewBox="0 0 48 48" id="menu">
    <path d="M 5.5 9 A 1.50015 1.50015 0 1 0 5.5 12 L 42.5 12 A 1.50015 1.50015 0 1 0 42.5 9 L 5.5 9 z M 5.5 22.5 A 1.50015 1.50015 0 1 0 5.5 25.5 L 42.5 25.5 A 1.50015 1.50015 0 1 0 42.5 22.5 L 5.5 22.5 z M 5.5 36 A 1.50015 1.50015 0 1 0 5.5 39 L 42.5 39 A 1.50015 1.50015 0 1 0 42.5 36 L 5.5 36 z"></path>
  </symbol>

  <symbol fill="#" xmlns="http://www.w3.org/2000/svg" viewBox="0 0 24 24" id="cross">
    <path d="M19 5L5 19M5.00001 5L19 19" stroke="#333333" stroke-width="1.8" stroke-linecap="round" stroke-linejoin="round"></path>
  </symbol>

  <symbol xmlns="http://www.w3.org/2000/svg" viewBox="0 0 98 100" id="github">
    <path fill-rule="evenodd" clip-rule="evenodd" d="M48.854 0C21.839 0 0 22 0 49.217c0 21.756 13.993 40.172 33.405 46.69 2.427.49 3.316-1.059 3.316-2.362 0-1.141-.08-5.052-.08-9.127-13.59 2.934-16.42-5.867-16.42-5.867-2.184-5.704-5.42-7.17-5.42-7.17-4.448-3.015.324-3.015.324-3.015 4.934.326 7.523 5.052 7.523 5.052 4.367 7.496 11.404 5.378 14.235 4.074.404-3.178 1.699-5.378 3.074-6.6-10.839-1.141-22.243-5.378-22.243-24.283 0-5.378 1.94-9.778 5.014-13.2-.485-1.222-2.184-6.275.486-13.038 0 0 4.125-1.304 13.426 5.052a46.97 46.97 0 0 1 12.214-1.63c4.125 0 8.33.571 12.213 1.63 9.302-6.356 13.427-5.052 13.427-5.052 2.67 6.763.97 11.816.485 13.038 3.155 3.422 5.015 7.822 5.015 13.2 0 18.905-11.404 23.06-22.324 24.283 1.78 1.548 3.316 4.481 3.316 9.126 0 6.6-.08 11.897-.08 13.526 0 1.304.89 2.853 3.316 2.364 19.412-6.52 33.405-24.935 33.405-46.691C97.707 22 75.788 0 48.854 0z" fill="#"></path>
  </symbol>

  <symbol xmlns="http://www.w3.org/2000/svg" viewBox="0 0 48 48" id="linktree" xml:space="preserve">
    <path d="M24 0C10.745 0 0 10.745 0 24s10.745 24 24 24 24-10.745 24-24S37.255 0 24 0zm1.881 37.001h-3.762v-8.495h3.762v8.495zm8.707-13.622h-6.432l4.581 4.45-2.518 2.528L24 24.107l-6.22 6.25-2.518-2.518 4.581-4.45h-6.432v-3.59h6.402l-4.551-4.339 2.518-2.579 4.339 4.46V11h3.762v6.341l4.338-4.46 2.518 2.579-4.551 4.339h6.402v3.58z"></path>
  </symbol>
</svg>