<svg xmlns="http://www.w3.org/2000/svg" width="61" height="60" viewBox="0 0 61 60">
    <g fill="none" fill-rule="nonzero">
        <path fill="#FFF" d="M.5 0h60v60H.5z"/>
        <path fill="#FFD75B" d="M30.03 43.48c7.779 0 14.084-6.306 14.084-14.084S37.809 15.313 30.03 15.313c-7.778 0-14.084 6.305-14.084 14.083 0 7.778 6.306 14.084 14.084 14.084z"/>
        <path fill="#424242" d="M37.484 31.322a1.723 1.723 0 0 1-1.722-1.723 5.604 5.604 0 0 0-5.6-5.597 1.724 1.724 0 1 1 0-3.448 9.053 9.053 0 0 1 9.043 9.043 1.723 1.723 0 0 1-1.72 1.725z"/>
        <path fill="#424242" d="M30.161 11C19.855 11 11.5 19.356 11.5 29.661c0 10.305 8.356 18.661 18.661 18.661 10.305 0 18.661-8.356 18.661-18.66C48.822 19.355 40.467 11 30.162 11zm0 30.718a12.058 12.058 0 1 1 0-24.118 12.058 12.058 0 0 1 0 24.12v-.002z"/>
    </g>
</svg>
