<svg xmlns="http://www.w3.org/2000/svg" width="61" height="60" viewBox="0 0 61 60">
    <g fill="none" fill-rule="nonzero">
        <path fill="#FFF" d="M.25 0h60v60h-60z"/>
        <path fill="#2CB9FF" d="M30.25 49c-10.463 0-19-8.537-19-19s8.537-19 19-19 19 8.537 19 19c-.084 10.463-8.537 19-19 19zm0-28.96c-5.524 0-9.96 4.52-9.96 10.044 0 5.524 4.52 9.96 9.96 9.96 5.44 0 9.96-4.52 9.96-9.96 0-5.608-4.52-10.044-9.96-10.044z"/>
        <path fill="#0054C6" d="M45.232 41.634C41.801 46.154 36.36 49 30.25 49c-10.463 0-19-8.537-19-19s8.537-19 19-19c6.11 0 11.55 2.93 14.982 7.366l-7.114 5.44c-1.842-2.343-4.687-3.85-7.868-3.85-5.524 0-9.96 4.52-9.96 10.044 0 5.524 4.52 9.96 9.96 9.96 3.18 0 6.026-1.506 7.868-3.85l7.114 5.524z"/>
    </g>
</svg>
