<svg xmlns="http://www.w3.org/2000/svg" width="60" height="60" viewBox="0 0 60 60">
    <g fill="none" fill-rule="nonzero">
        <path fill="#FFF" d="M0 0h60v60H0z"/>
        <path fill="#424242" d="M44.9 20.669c0-.034 0-.034 0 0 0-.068-.035-.102-.035-.136v-.034c0-.034-.033-.068-.033-.136v-.034c0-.034-.034-.034-.034-.068 0 0 0-.033-.033-.033 0 0 0-.034-.034-.034-.034-.034-.034-.068-.067-.102l-.101-.102-.034-.034c-.033-.034-.067-.034-.1-.068h-.034c-.034-.034-.068-.034-.101-.068l-13.89-6.718a1.063 1.063 0 0 0-.908 0l-13.89 6.752c-.37.17-.606.543-.606.95v17.34c0 .373.202.746.538.916l13.924 7.804c.034.034.067.034.1.068h.034c.034 0 .068.034.101.034h.034c.034 0 .067 0 .1.034H30.169c.034 0 .067 0 .101-.034h.034c.033 0 .067-.034.1-.034h.034c.034 0 .067-.034.101-.068l13.924-7.77c.336-.17.538-.543.538-.916V20.804c-.067-.067-.067-.101-.1-.135zm-2.052 16.864L31.009 44.15v-3.733c0-.577-.47-1.052-1.043-1.052-.571 0-1.042.475-1.042 1.052v3.733l-11.839-6.617V22.501a5.679 5.679 0 0 1 3.195 1.697l2.12 2.34c-.337.442-.808 1.087-.943 1.562-.302 1.086-.1 2.171.404 3.088l6.962-4.072c-.505-.916-1.379-1.595-2.455-1.9-.64-.17-1.581-.068-2.186.067l-.101.102-2.355-2.613a8.003 8.003 0 0 0-3.228-2.002l11.468-5.53 11.637 5.632-7.6 4.242c-.505.271-.673.916-.404 1.425.201.34.538.543.908.543a.943.943 0 0 0 .504-.136l7.803-4.377v6.311h-.067c0 3.461-2.792 6.278-6.222 6.278-1.211 0-2.355-.374-3.33-.984.135-.34.202-.713.202-1.12 0-.882-.336-1.663-.908-2.206l-.774.815-1.547-1.561a.524.524 0 0 0-.74 0 .536.536 0 0 0 0 .746l1.547 1.561-1.345 1.357-1.58-1.594a.525.525 0 0 0-.74 0 .536.536 0 0 0 0 .746l1.58 1.595-.773.78a3.064 3.064 0 0 0 2.186.917c.571 0 1.076-.17 1.547-.408a8.301 8.301 0 0 0 4.675 1.46 8.177 8.177 0 0 0 6.289-2.919c.034 0 .034 3.19.034 3.19z"/>
    </g>
</svg>
