<svg xmlns="http://www.w3.org/2000/svg" xmlns:xlink="http://www.w3.org/1999/xlink" version="1.1" width="256" height="256" viewBox="0 0 256 256" xml:space="preserve">

<defs>
</defs>
<g style="stroke: none; stroke-width: 0; stroke-dasharray: none; stroke-linecap: butt; stroke-linejoin: miter; stroke-miterlimit: 10; fill: none; fill-rule: nonzero; opacity: 1;" transform="translate(1.4065934065934016 1.4065934065934016) scale(2.81 2.81)" >
	<polygon points="90,86.07 0,86.07 0,40.89 45,9.21 90,40.89 " style="stroke: none; stroke-width: 1; stroke-dasharray: none; stroke-linecap: butt; stroke-linejoin: miter; stroke-miterlimit: 10; fill: rgb(151,166,157); fill-rule: nonzero; opacity: 1;" transform="  matrix(1 0 0 1 0 0) "/>
	<path d="M 79.742 17.021 C 71.401 35.784 68.809 53.653 69.193 76.54 l -35.623 0 c -0.582 -21.411 1.85 -41.281 10.872 -60.318 c 0.436 -0.92 1.374 -1.502 2.393 -1.502 l 31.403 0 C 79.422 14.72 80.223 15.939 79.742 17.021 z" style="stroke: none; stroke-width: 1; stroke-dasharray: none; stroke-linecap: butt; stroke-linejoin: miter; stroke-miterlimit: 10; fill: rgb(34,105,38); fill-rule: nonzero; opacity: 1;" transform=" matrix(1 0 0 1 0 0) " stroke-linecap="round" />
	<path d="M 70.671 10.252 c -5.45 21.703 -8.114 44.048 -7.728 67.096 l -35.623 0 c -0.58 -21.325 2.633 -43.912 7.807 -67.152 c 0.276 -1.24 1.381 -2.124 2.652 -2.124 l 31.2 0 C 70.121 8.073 70.949 9.145 70.671 10.252 z" style="stroke: none; stroke-width: 1; stroke-dasharray: none; stroke-linecap: butt; stroke-linejoin: miter; stroke-miterlimit: 10; fill: rgb(39,119,44); fill-rule: nonzero; opacity: 1;" transform=" matrix(1 0 0 1 0 0) " stroke-linecap="round" />
	<path d="M 58.801 6.098 l 0 64.941 c 0 1.197 -0.97 2.167 -2.167 2.167 l -31.289 0 c -1.197 0 -2.167 -0.97 -2.167 -2.167 l 0 -64.941 c 0 -1.197 0.97 -2.167 2.167 -2.167 l 31.289 0 C 57.831 3.93 58.801 4.901 58.801 6.098 z" style="stroke: none; stroke-width: 1; stroke-dasharray: none; stroke-linecap: butt; stroke-linejoin: miter; stroke-miterlimit: 10; fill: rgb(49,139,54); fill-rule: nonzero; opacity: 1;" transform=" matrix(1 0 0 1 0 0) " stroke-linecap="round" />
	<path d="M 26.138 13.069 l 0 50.99 c 3.564 0 6.454 2.89 6.454 6.454 l 16.83 0 c 0 -3.564 2.89 -6.454 6.454 -6.454 l 0 -50.99 c -0.065 0.002 -0.128 0.01 -0.193 0.01 c -3.564 0 -6.454 -2.89 -6.454 -6.454 l -16.83 0 C 32.399 10.124 29.613 12.966 26.138 13.069 z" style="stroke: none; stroke-width: 1; stroke-dasharray: none; stroke-linecap: butt; stroke-linejoin: miter; stroke-miterlimit: 10; fill: rgb(59,158,65); fill-rule: nonzero; opacity: 1;" transform=" matrix(1 0 0 1 0 0) " stroke-linecap="round" />
	<circle cx="27.686" cy="68.896" r="1.616" style="stroke: none; stroke-width: 1; stroke-dasharray: none; stroke-linecap: butt; stroke-linejoin: miter; stroke-miterlimit: 10; fill: rgb(59,158,65); fill-rule: nonzero; opacity: 1;" transform="  matrix(1 0 0 1 0 0) "/>
	<circle cx="54.256" cy="68.896" r="1.616" style="stroke: none; stroke-width: 1; stroke-dasharray: none; stroke-linecap: butt; stroke-linejoin: miter; stroke-miterlimit: 10; fill: rgb(59,158,65); fill-rule: nonzero; opacity: 1;" transform="  matrix(1 0 0 1 0 0) "/>
	<circle cx="27.716" cy="8.246" r="1.616" style="stroke: none; stroke-width: 1; stroke-dasharray: none; stroke-linecap: butt; stroke-linejoin: miter; stroke-miterlimit: 10; fill: rgb(59,158,65); fill-rule: nonzero; opacity: 1;" transform="  matrix(1 0 0 1 0 0) "/>
	<circle cx="54.296" cy="8.246" r="1.616" style="stroke: none; stroke-width: 1; stroke-dasharray: none; stroke-linecap: butt; stroke-linejoin: miter; stroke-miterlimit: 10; fill: rgb(59,158,65); fill-rule: nonzero; opacity: 1;" transform="  matrix(1 0 0 1 0 0) "/>
	<circle cx="40.991" cy="38.571" r="12.701" style="stroke: none; stroke-width: 1; stroke-dasharray: none; stroke-linecap: butt; stroke-linejoin: miter; stroke-miterlimit: 10; fill: rgb(49,139,54); fill-rule: nonzero; opacity: 1;" transform="  matrix(1 0 0 1 0 0) "/>
	<path d="M 42.247 34.288 c -1.473 0.704 -2.154 2.446 -2.583 3.885 c -0.515 1.728 -0.959 2.1 -1.126 2.18 c -0.108 0.052 -0.286 0.028 -0.487 -0.054 c -0.575 -0.258 -0.977 -1.011 -0.977 -1.832 c 0 -0.59 0.208 -1.145 0.539 -1.507 c 0.244 -0.267 0.29 -0.658 0.142 -0.988 l -0.387 -0.864 c -0.256 -0.571 -1 -0.751 -1.469 -0.336 c -0.715 0.632 -1.222 1.515 -1.45 2.514 h -1.021 c -0.519 0 -0.94 0.421 -0.94 0.94 v 0.887 c 0 0.519 0.421 0.94 0.94 0.94 h 1.13 c 0.394 1.245 1.241 2.27 2.403 2.789 c 1.239 0.508 2.191 0.284 2.77 0.007 c 1.473 -0.704 2.155 -2.446 2.584 -3.885 c 0.515 -1.729 0.959 -2.101 1.126 -2.181 c 0.108 -0.051 0.286 -0.028 0.487 0.054 c 0.575 0.258 0.977 1.011 0.977 1.832 c 0 0.59 -0.207 1.145 -0.538 1.506 c -0.244 0.267 -0.29 0.658 -0.142 0.988 l 0.387 0.864 c 0.259 0.577 1.009 0.747 1.482 0.327 c 0.663 -0.588 1.149 -1.391 1.395 -2.303 h 1.062 c 0.519 0 0.94 -0.421 0.94 -0.94 v -0.887 c 0 -0.519 -0.421 -0.94 -0.94 -0.94 h -1.063 c -0.362 -1.338 -1.245 -2.443 -2.471 -2.991 C 43.778 33.788 42.827 34.011 42.247 34.288 z" style="stroke: none; stroke-width: 1; stroke-dasharray: none; stroke-linecap: butt; stroke-linejoin: miter; stroke-miterlimit: 10; fill: rgb(59,158,65); fill-rule: nonzero; opacity: 1;" transform=" matrix(1 0 0 1 0 0) " stroke-linecap="round" />
	<path d="M 42.337 55.418 v 6.328 c 0 0.744 -0.603 1.347 -1.347 1.347 h 0 c -0.744 0 -1.347 -0.603 -1.347 -1.347 v -6.328 c 0 -0.744 0.603 -1.347 1.347 -1.347 h 0 C 41.734 54.071 42.337 54.674 42.337 55.418 z" style="stroke: none; stroke-width: 1; stroke-dasharray: none; stroke-linecap: butt; stroke-linejoin: miter; stroke-miterlimit: 10; fill: rgb(49,139,54); fill-rule: nonzero; opacity: 1;" transform=" matrix(1 0 0 1 0 0) " stroke-linecap="round" />
	<path d="M 42.337 15.392 v 6.328 c 0 0.744 -0.603 1.347 -1.347 1.347 h 0 c -0.744 0 -1.347 -0.603 -1.347 -1.347 v -6.328 c 0 -0.744 0.603 -1.347 1.347 -1.347 h 0 C 41.734 14.045 42.337 14.648 42.337 15.392 z" style="stroke: none; stroke-width: 1; stroke-dasharray: none; stroke-linecap: butt; stroke-linejoin: miter; stroke-miterlimit: 10; fill: rgb(49,139,54); fill-rule: nonzero; opacity: 1;" transform=" matrix(1 0 0 1 0 0) " stroke-linecap="round" />
	<path d="M 0 40.894 c 13.109 11.935 27.979 19.66 45 22.239 c 18.64 -3.584 33.71 -10.924 45 -22.239 V 86.07 H 0 L 0 40.894 z" style="stroke: none; stroke-width: 1; stroke-dasharray: none; stroke-linecap: butt; stroke-linejoin: miter; stroke-miterlimit: 10; fill: rgb(201,214,206); fill-rule: nonzero; opacity: 1;" transform=" matrix(1 0 0 1 0 0) " stroke-linecap="round" />
	<path d="M 45 63.133 c -5.007 -0.758 -9.823 -1.974 -14.467 -3.599 L 0 86.069 h 90 L 59.306 59.394 C 54.797 60.914 50.034 62.165 45 63.133 z" style="stroke: none; stroke-width: 1; stroke-dasharray: none; stroke-linecap: butt; stroke-linejoin: miter; stroke-miterlimit: 10; fill: rgb(182,195,187); fill-rule: nonzero; opacity: 1;" transform=" matrix(1 0 0 1 0 0) " stroke-linecap="round" />
	<path d="M 0 86.07 l 42.542 -26.988 c 1.5 -0.952 3.415 -0.952 4.915 0 L 90 86.07 H 0 z" style="stroke: none; stroke-width: 1; stroke-dasharray: none; stroke-linecap: butt; stroke-linejoin: miter; stroke-miterlimit: 10; fill: rgb(201,214,206); fill-rule: nonzero; opacity: 1;" transform=" matrix(1 0 0 1 0 0) " stroke-linecap="round" />
</g>
</svg>